<?xml version="1.0" encoding="utf-8"?>
<svg width="243px" height="244px" viewbox="0 0 243 244" version="1.1" xmlns:xlink="http://www.w3.org/1999/xlink" xmlns="http://www.w3.org/2000/svg">
  <defs>
    <filter id="filter_1">
      <feColorMatrix in="SourceGraphic" type="matrix" values="0 0 0 0 1 0 0 0 0 1 0 0 0 0 1 0 0 0 1 0" />
    </filter>
  </defs>
  <g id="Group-109" filter="url(#filter_1)">
    <path d="M170.001 0L24.999 0Q24.3853 0 23.7724 0.0301124Q23.1594 0.0602248 22.5487 0.120377Q21.9379 0.180529 21.3309 0.270576Q20.7238 0.360624 20.1219 0.480349Q19.52 0.600074 18.9247 0.749189Q18.3294 0.898303 17.7422 1.07645Q17.1549 1.25459 16.5771 1.46134Q15.9993 1.66809 15.4323 1.90294Q14.8653 2.13778 14.3106 2.40017Q13.7558 2.66256 13.2146 2.95185Q12.6733 3.24114 12.1469 3.55664Q11.6206 3.87214 11.1103 4.21309Q10.6 4.55404 10.1071 4.91961Q9.61419 5.28519 9.1398 5.67451Q8.66541 6.06383 8.2107 6.47596Q7.75598 6.88809 7.32204 7.32204Q6.88809 7.75598 6.47596 8.2107Q6.06383 8.66541 5.67451 9.1398Q5.28519 9.61419 4.91961 10.1071Q4.55404 10.6 4.21309 11.1103Q3.87214 11.6206 3.55664 12.1469Q3.24114 12.6733 2.95185 13.2146Q2.66256 13.7558 2.40017 14.3105Q2.13778 14.8653 1.90294 15.4323Q1.66809 15.9993 1.46134 16.5771Q1.25459 17.1549 1.07645 17.7422Q0.898303 18.3294 0.749189 18.9247Q0.600074 19.52 0.480349 20.1219Q0.360624 20.7238 0.270576 21.3309Q0.180529 21.9379 0.120377 22.5487Q0.0602248 23.1594 0.0301124 23.7724Q0 24.3853 0 24.999L0 170.001Q0 170.615 0.0301124 171.228Q0.0602248 171.841 0.120377 172.451Q0.180529 173.062 0.270576 173.669Q0.360624 174.276 0.480349 174.878Q0.600074 175.48 0.749189 176.075Q0.898303 176.671 1.07645 177.258Q1.25459 177.845 1.46134 178.423Q1.66809 179.001 1.90294 179.568Q2.13778 180.135 2.40017 180.689Q2.66256 181.244 2.95185 181.785Q3.24114 182.327 3.55664 182.853Q3.87214 183.379 4.21309 183.89Q4.55404 184.4 4.91961 184.893Q5.28519 185.386 5.67451 185.86Q6.06383 186.335 6.47596 186.789Q6.88809 187.244 7.32204 187.678Q7.75598 188.112 8.2107 188.524Q8.66541 188.936 9.1398 189.325Q9.61419 189.715 10.1071 190.08Q10.6 190.446 11.1103 190.787Q11.6206 191.128 12.1469 191.443Q12.6733 191.759 13.2146 192.048Q13.7558 192.337 14.3105 192.6Q14.8653 192.862 15.4323 193.097Q15.9993 193.332 16.5771 193.539Q17.1549 193.745 17.7422 193.924Q18.3294 194.102 18.9247 194.251Q19.52 194.4 20.1219 194.52Q20.7238 194.639 21.3309 194.729Q21.9379 194.819 22.5487 194.88Q23.1594 194.94 23.7724 194.97Q24.3853 195 24.999 195L170.001 195Q170.615 195 171.228 194.97Q171.841 194.94 172.451 194.88Q173.062 194.819 173.669 194.729Q174.276 194.639 174.878 194.52Q175.48 194.4 176.075 194.251Q176.671 194.102 177.258 193.924Q177.845 193.745 178.423 193.539Q179.001 193.332 179.568 193.097Q180.135 192.862 180.689 192.6Q181.244 192.337 181.785 192.048Q182.327 191.759 182.853 191.443Q183.379 191.128 183.89 190.787Q184.4 190.446 184.893 190.08Q185.386 189.715 185.86 189.325Q186.335 188.936 186.789 188.524Q187.244 188.112 187.678 187.678Q188.112 187.244 188.524 186.789Q188.936 186.335 189.325 185.86Q189.715 185.386 190.08 184.893Q190.446 184.4 190.787 183.89Q191.128 183.379 191.443 182.853Q191.759 182.327 192.048 181.785Q192.337 181.244 192.6 180.689Q192.862 180.135 193.097 179.568Q193.332 179.001 193.539 178.423Q193.745 177.845 193.924 177.258Q194.102 176.671 194.251 176.075Q194.4 175.48 194.52 174.878Q194.639 174.276 194.729 173.669Q194.819 173.062 194.88 172.451Q194.94 171.841 194.97 171.228Q195 170.615 195 170.001L195 24.999Q195 24.3853 194.97 23.7724Q194.94 23.1594 194.88 22.5487Q194.819 21.9379 194.729 21.3309Q194.639 20.7238 194.52 20.1219Q194.4 19.52 194.251 18.9247Q194.102 18.3294 193.924 17.7422Q193.745 17.1549 193.539 16.5771Q193.332 15.9993 193.097 15.4323Q192.862 14.8653 192.6 14.3105Q192.337 13.7558 192.048 13.2146Q191.759 12.6733 191.443 12.1469Q191.128 11.6206 190.787 11.1103Q190.446 10.6 190.08 10.1071Q189.715 9.61419 189.325 9.1398Q188.936 8.66541 188.524 8.2107Q188.112 7.75598 187.678 7.32204Q187.244 6.88809 186.789 6.47596Q186.335 6.06383 185.86 5.67451Q185.386 5.28519 184.893 4.91961Q184.4 4.55404 183.89 4.21309Q183.379 3.87214 182.853 3.55664Q182.327 3.24114 181.785 2.95185Q181.244 2.66256 180.689 2.40017Q180.135 2.13778 179.568 1.90294Q179.001 1.66809 178.423 1.46134Q177.845 1.25459 177.258 1.07645Q176.671 0.898303 176.075 0.749189Q175.48 0.600074 174.878 0.480349Q174.276 0.360624 173.669 0.270576Q173.062 0.180529 172.451 0.120377Q171.841 0.0602248 171.228 0.0301124Q170.615 0 170.001 0ZM165.001 20L29.999 20Q29.7535 20 29.5084 20.012Q29.2632 20.0241 29.0189 20.0481Q28.7746 20.0722 28.5318 20.1082Q28.289 20.1442 28.0483 20.1921Q27.8075 20.24 27.5694 20.2997Q27.3313 20.3593 27.0964 20.4306Q26.8615 20.5018 26.6304 20.5845Q26.3993 20.6672 26.1725 20.7611Q25.9458 20.8551 25.7239 20.96Q25.502 21.065 25.2855 21.1807Q25.069 21.2964 24.8585 21.4226Q24.6479 21.5488 24.4439 21.6851Q24.2398 21.8215 24.0426 21.9677Q23.8454 22.1139 23.6557 22.2697Q23.466 22.4254 23.2841 22.5902Q23.1022 22.7551 22.9286 22.9286Q22.7551 23.1022 22.5902 23.2841Q22.4254 23.466 22.2697 23.6557Q22.1139 23.8454 21.9677 24.0426Q21.8215 24.2398 21.6851 24.4439Q21.5488 24.6479 21.4226 24.8585Q21.2964 25.069 21.1807 25.2855Q21.065 25.502 20.96 25.7239Q20.8551 25.9458 20.7611 26.1725Q20.6672 26.3993 20.5845 26.6304Q20.5018 26.8616 20.4306 27.0964Q20.3593 27.3313 20.2997 27.5694Q20.24 27.8075 20.1921 28.0483Q20.1442 28.289 20.1082 28.5318Q20.0722 28.7746 20.0481 29.0189Q20.0241 29.2632 20.012 29.5084Q20 29.7535 20 29.999L20 165.001Q20 165.246 20.012 165.492Q20.0241 165.737 20.0481 165.981Q20.0722 166.225 20.1082 166.468Q20.1442 166.711 20.1921 166.952Q20.24 167.192 20.2997 167.431Q20.3593 167.669 20.4306 167.904Q20.5018 168.138 20.5845 168.37Q20.6672 168.601 20.7611 168.827Q20.8551 169.054 20.96 169.276Q21.065 169.498 21.1807 169.714Q21.2964 169.931 21.4226 170.141Q21.5488 170.352 21.6851 170.556Q21.8215 170.76 21.9677 170.957Q22.1139 171.155 22.2697 171.344Q22.4254 171.534 22.5902 171.716Q22.7551 171.898 22.9286 172.071Q23.1022 172.245 23.2841 172.41Q23.466 172.575 23.6557 172.73Q23.8454 172.886 24.0426 173.032Q24.2398 173.178 24.4439 173.315Q24.6479 173.451 24.8585 173.577Q25.069 173.704 25.2855 173.819Q25.502 173.935 25.7239 174.04Q25.9458 174.145 26.1725 174.239Q26.3993 174.333 26.6304 174.415Q26.8616 174.498 27.0964 174.569Q27.3313 174.641 27.5694 174.7Q27.8075 174.76 28.0483 174.808Q28.289 174.856 28.5318 174.892Q28.7746 174.928 29.0189 174.952Q29.2632 174.976 29.5084 174.988Q29.7535 175 29.999 175L165.001 175Q165.246 175 165.492 174.988Q165.737 174.976 165.981 174.952Q166.225 174.928 166.468 174.892Q166.711 174.856 166.952 174.808Q167.192 174.76 167.431 174.7Q167.669 174.641 167.904 174.569Q168.138 174.498 168.37 174.415Q168.601 174.333 168.827 174.239Q169.054 174.145 169.276 174.04Q169.498 173.935 169.714 173.819Q169.931 173.704 170.141 173.577Q170.352 173.451 170.556 173.315Q170.76 173.178 170.957 173.032Q171.155 172.886 171.344 172.73Q171.534 172.575 171.716 172.41Q171.898 172.245 172.071 172.071Q172.245 171.898 172.41 171.716Q172.575 171.534 172.73 171.344Q172.886 171.155 173.032 170.957Q173.178 170.76 173.315 170.556Q173.451 170.352 173.577 170.141Q173.704 169.931 173.819 169.714Q173.935 169.498 174.04 169.276Q174.145 169.054 174.239 168.827Q174.333 168.601 174.415 168.37Q174.498 168.138 174.569 167.904Q174.641 167.669 174.7 167.431Q174.76 167.192 174.808 166.952Q174.856 166.711 174.892 166.468Q174.928 166.225 174.952 165.981Q174.976 165.737 174.988 165.492Q175 165.246 175 165.001L175 29.999Q175 29.7535 174.988 29.5084Q174.976 29.2632 174.952 29.0189Q174.928 28.7746 174.892 28.5318Q174.856 28.289 174.808 28.0483Q174.76 27.8075 174.7 27.5694Q174.641 27.3313 174.569 27.0964Q174.498 26.8615 174.415 26.6304Q174.333 26.3993 174.239 26.1725Q174.145 25.9458 174.04 25.7239Q173.935 25.502 173.819 25.2855Q173.704 25.069 173.577 24.8585Q173.451 24.6479 173.315 24.4439Q173.178 24.2398 173.032 24.0426Q172.886 23.8454 172.73 23.6557Q172.575 23.466 172.41 23.2841Q172.245 23.1022 172.071 22.9286Q171.898 22.7551 171.716 22.5902Q171.534 22.4254 171.344 22.2697Q171.155 22.1139 170.957 21.9677Q170.76 21.8215 170.556 21.6851Q170.352 21.5488 170.141 21.4226Q169.931 21.2964 169.714 21.1807Q169.498 21.065 169.276 20.96Q169.054 20.8551 168.827 20.7611Q168.601 20.6672 168.37 20.5845Q168.138 20.5018 167.904 20.4306Q167.669 20.3593 167.431 20.2997Q167.192 20.24 166.952 20.1921Q166.711 20.1442 166.468 20.1082Q166.225 20.0722 165.981 20.0481Q165.737 20.0241 165.492 20.012Q165.246 20 165.001 20Z" id="Rectangle-55-Difference" fill="#D3D3D3" fill-rule="evenodd" stroke="none" />
    <path d="M0 159L0 170.001Q0 170.615 0.0301124 171.228Q0.0602248 171.841 0.120377 172.451Q0.180529 173.062 0.270576 173.669Q0.360624 174.276 0.480349 174.878Q0.600074 175.48 0.749189 176.075Q0.898303 176.671 1.07645 177.258Q1.25459 177.845 1.46134 178.423Q1.66809 179.001 1.90294 179.568Q2.13778 180.135 2.40017 180.689Q2.66256 181.244 2.95185 181.785Q3.24114 182.327 3.55664 182.853Q3.87214 183.379 4.21309 183.89Q4.55404 184.4 4.91961 184.893Q5.28519 185.386 5.67451 185.86Q6.06383 186.335 6.47596 186.789Q6.88809 187.244 7.32204 187.678Q7.75598 188.112 8.2107 188.524Q8.66541 188.936 9.1398 189.325Q9.61419 189.715 10.1071 190.08Q10.6 190.446 11.1103 190.787Q11.6206 191.128 12.1469 191.443Q12.6733 191.759 13.2146 192.048Q13.7558 192.337 14.3105 192.6Q14.8653 192.862 15.4323 193.097Q15.9993 193.332 16.5771 193.539Q17.1549 193.745 17.7422 193.924Q18.3294 194.102 18.9247 194.251Q19.52 194.4 20.1219 194.52Q20.7238 194.639 21.3309 194.729Q21.9379 194.819 22.5487 194.88Q23.1594 194.94 23.7724 194.97Q24.3853 195 24.999 195L170.001 195Q170.615 195 171.228 194.97Q171.841 194.94 172.451 194.88Q173.062 194.819 173.669 194.729Q174.276 194.639 174.878 194.52Q175.48 194.4 176.075 194.251Q176.671 194.102 177.258 193.924Q177.845 193.745 178.423 193.539Q179.001 193.332 179.568 193.097Q180.135 192.862 180.689 192.6Q181.244 192.337 181.785 192.048Q182.327 191.759 182.853 191.443Q183.379 191.128 183.89 190.787Q184.4 190.446 184.893 190.08Q185.386 189.715 185.86 189.325Q186.335 188.936 186.789 188.524Q187.244 188.112 187.678 187.678Q188.112 187.244 188.524 186.789Q188.936 186.335 189.325 185.86Q189.715 185.386 190.08 184.893Q190.446 184.4 190.787 183.89Q191.128 183.379 191.443 182.853Q191.759 182.327 192.048 181.785Q192.337 181.244 192.6 180.689Q192.862 180.135 193.097 179.568Q193.332 179.001 193.539 178.423Q193.745 177.845 193.924 177.258Q194.102 176.671 194.251 176.075Q194.4 175.48 194.52 174.878Q194.639 174.276 194.729 173.669Q194.819 173.062 194.88 172.451Q194.94 171.841 194.97 171.228Q195 170.615 195 170.001L195 24.999Q195 24.3853 194.97 23.7724Q194.94 23.1594 194.88 22.5487Q194.819 21.9379 194.729 21.3309Q194.639 20.7238 194.52 20.1219Q194.4 19.52 194.251 18.9247Q194.102 18.3294 193.924 17.7422Q193.745 17.1549 193.539 16.5771Q193.332 15.9993 193.097 15.4323Q192.862 14.8653 192.6 14.3105Q192.337 13.7558 192.048 13.2146Q191.759 12.6733 191.443 12.1469Q191.128 11.6206 190.787 11.1103Q190.446 10.6 190.08 10.1071Q189.715 9.61419 189.325 9.1398Q188.936 8.66541 188.524 8.2107Q188.112 7.75598 187.678 7.32204Q187.244 6.88809 186.789 6.47596Q186.335 6.06383 185.86 5.67451Q185.386 5.28519 184.893 4.91961Q184.4 4.55404 183.89 4.21309Q183.379 3.87214 182.853 3.55664Q182.327 3.24114 181.785 2.95185Q181.244 2.66256 180.689 2.40017Q180.135 2.13778 179.568 1.90294Q179.001 1.66809 178.423 1.46134Q177.845 1.25459 177.258 1.07645Q176.671 0.898303 176.075 0.749189Q175.48 0.600074 174.878 0.480349Q174.276 0.360624 173.669 0.270576Q173.062 0.180529 172.451 0.120377Q171.841 0.0602248 171.228 0.0301124Q170.615 0 170.001 0L157 0L157 20L165.001 20Q165.246 20 165.492 20.012Q165.737 20.0241 165.981 20.0481Q166.225 20.0722 166.468 20.1082Q166.711 20.1442 166.952 20.1921Q167.192 20.24 167.431 20.2997Q167.669 20.3593 167.904 20.4306Q168.138 20.5018 168.37 20.5845Q168.601 20.6672 168.827 20.7611Q169.054 20.8551 169.276 20.96Q169.498 21.065 169.714 21.1807Q169.931 21.2964 170.141 21.4226Q170.352 21.5488 170.556 21.6851Q170.76 21.8215 170.957 21.9677Q171.155 22.1139 171.344 22.2697Q171.534 22.4254 171.716 22.5902Q171.898 22.7551 172.071 22.9286Q172.245 23.1022 172.41 23.2841Q172.575 23.466 172.73 23.6557Q172.886 23.8454 173.032 24.0426Q173.178 24.2398 173.315 24.4439Q173.451 24.6479 173.577 24.8585Q173.704 25.069 173.819 25.2855Q173.935 25.502 174.04 25.7239Q174.145 25.9458 174.239 26.1725Q174.333 26.3993 174.415 26.6304Q174.498 26.8616 174.569 27.0964Q174.641 27.3313 174.7 27.5694Q174.76 27.8075 174.808 28.0483Q174.856 28.289 174.892 28.5318Q174.928 28.7746 174.952 29.0189Q174.976 29.2632 174.988 29.5084Q175 29.7535 175 29.999L175 165.001Q175 165.246 174.988 165.492Q174.976 165.737 174.952 165.981Q174.928 166.225 174.892 166.468Q174.856 166.711 174.808 166.952Q174.76 167.192 174.7 167.431Q174.641 167.669 174.569 167.904Q174.498 168.138 174.415 168.37Q174.333 168.601 174.239 168.827Q174.145 169.054 174.04 169.276Q173.935 169.498 173.819 169.714Q173.704 169.931 173.577 170.141Q173.451 170.352 173.315 170.556Q173.178 170.76 173.032 170.957Q172.886 171.155 172.73 171.344Q172.575 171.534 172.41 171.716Q172.245 171.898 172.071 172.071Q171.898 172.245 171.716 172.41Q171.534 172.575 171.344 172.73Q171.155 172.886 170.957 173.032Q170.76 173.178 170.556 173.315Q170.352 173.451 170.141 173.577Q169.931 173.704 169.714 173.819Q169.498 173.935 169.276 174.04Q169.054 174.145 168.827 174.239Q168.601 174.333 168.37 174.415Q168.138 174.498 167.904 174.569Q167.669 174.641 167.431 174.7Q167.192 174.76 166.952 174.808Q166.711 174.856 166.468 174.892Q166.225 174.928 165.981 174.952Q165.737 174.976 165.492 174.988Q165.246 175 165.001 175L29.999 175Q29.7535 175 29.5084 174.988Q29.2632 174.976 29.0189 174.952Q28.7746 174.928 28.5318 174.892Q28.289 174.856 28.0483 174.808Q27.8075 174.76 27.5694 174.7Q27.3313 174.641 27.0964 174.569Q26.8615 174.498 26.6304 174.415Q26.3993 174.333 26.1725 174.239Q25.9458 174.145 25.7239 174.04Q25.502 173.935 25.2855 173.819Q25.069 173.704 24.8585 173.577Q24.6479 173.451 24.4439 173.315Q24.2398 173.178 24.0426 173.032Q23.8454 172.886 23.6557 172.73Q23.466 172.575 23.2841 172.41Q23.1022 172.245 22.9286 172.071Q22.7551 171.898 22.5902 171.716Q22.4254 171.534 22.2697 171.344Q22.1139 171.155 21.9677 170.957Q21.8215 170.76 21.6851 170.556Q21.5488 170.352 21.4226 170.141Q21.2964 169.931 21.1807 169.714Q21.065 169.498 20.96 169.276Q20.8551 169.054 20.7611 168.827Q20.6672 168.601 20.5845 168.37Q20.5018 168.138 20.4306 167.904Q20.3593 167.669 20.2997 167.431Q20.24 167.192 20.1921 166.952Q20.1442 166.711 20.1082 166.468Q20.0722 166.225 20.0481 165.981Q20.0241 165.737 20.012 165.492Q20 165.246 20 165.001L20 159L7.10543e-15 159L0 159Z" transform="translate(48 48.000122)" id="Rectangle-55-Difference-2-Difference" fill="#D3D3D3" fill-rule="evenodd" stroke="none" />
  </g>
</svg>