<?xml version="1.0" encoding="utf-8"?>
<svg width="298px" height="298px" viewbox="0 0 298 298" version="1.1" xmlns:xlink="http://www.w3.org/1999/xlink" xmlns="http://www.w3.org/2000/svg">
  <defs>
    <rect width="298" height="298" id="slice_1" />
    <clipPath id="clip_1">
      <use xlink:href="#slice_1" clip-rule="evenodd" />
    </clipPath>
  </defs>
  <path d="M0 0L298 0L298 298L0 298L0 0Z" id="Rectangle-50" fill="#EDF0F1" fill-rule="evenodd" stroke="none" />
  <g id="Slice-21" clip-path="url(#clip_1)">
    <use xlink:href="#slice_1" stroke="none" fill="none" />
    <g id="Padlock-icon-2" transform="translate(0.99902344 1)">
      <path d="M79.6923 0C54.5216 0 32.7752 10.4507 19.2115 27.3942C5.64784 44.3377 0 66.3065 0 90.0096L0 125.231L34.1538 125.231L34.1538 90.0096C34.1538 72.0433 38.601 57.9015 45.8942 48.7404C53.1875 39.5793 63.1046 34.1538 79.6923 34.1538C96.3245 34.1538 106.197 39.268 113.49 48.3846C120.784 57.5012 125.231 71.8209 125.231 90.0096L125.231 102.462L159.385 102.462L159.385 90.0096C159.385 66.1731 153.381 43.982 139.817 27.0385C126.254 10.095 104.819 0 79.6923 0L79.6923 0ZM102.461 113.846C83.6057 113.846 68.3076 129.144 68.3076 148L68.3076 261.846C68.3076 280.702 83.6057 296 102.461 296L261.846 296C280.702 296 296 280.702 296 261.846L296 148C296 129.144 280.702 113.846 261.846 113.846L102.461 113.846ZM182.154 170.769C194.739 170.769 204.923 180.953 204.923 193.539C204.923 201.944 200.343 209.148 193.539 213.106L193.539 239.077C193.539 245.347 188.424 250.462 182.154 250.462C175.884 250.462 170.769 245.347 170.769 239.077L170.769 213.106C163.965 209.148 159.385 201.944 159.385 193.539C159.385 180.953 169.569 170.769 182.154 170.769L182.154 170.769Z" id="Shape" fill="#CF4242" fill-rule="evenodd" stroke="none" />
    </g>
  </g>
</svg>