<?xml version="1.0" encoding="utf-8"?>
<svg width="298px" height="298px" viewbox="0 0 298 298" version="1.1" xmlns:xlink="http://www.w3.org/1999/xlink" xmlns="http://www.w3.org/2000/svg">
  <defs>
    <filter id="filter_1">
      <feColorMatrix in="SourceGraphic" type="matrix" values="0 0 0 0 0.047058824 0 0 0 0 0.4117647 0 0 0 0 0.13725491 0 0 0 1 0" />
    </filter>
    <rect width="298" height="298" id="slice_1" />
    <clipPath id="clip_1">
      <use xlink:href="#slice_1" clip-rule="evenodd" />
    </clipPath>
  </defs>
  <path d="M0 0L298 0L298 298L0 298L0 0Z" id="Rectangle-49" fill="#EDF0F1" fill-rule="evenodd" stroke="none" />
  <g id="Slice-20" clip-path="url(#clip_1)">
    <use xlink:href="#slice_1" stroke="none" fill="none" />
    <g id="Padlock-icon-3" transform="translate(69.30762 1.0000153)" filter="url(#filter_1)">
      <path d="M114.378 0C89.2072 0 67.4608 10.4507 53.8971 27.3942C40.3334 44.3377 34.6855 66.3065 34.6855 90.0096L34.6928 102.462L68.8467 102.462L68.8394 90.0096C68.8394 72.0433 73.2865 57.9014 80.5798 48.7404C87.8731 39.5793 97.7901 34.1538 114.378 34.1538C131.01 34.1538 140.883 39.268 148.176 48.3846C155.469 57.5012 159.916 71.8209 159.916 90.0096L159.916 102.462L194.07 102.462L194.07 90.0096C194.07 66.1731 188.067 43.982 174.503 27.0385C160.939 10.095 139.504 0 114.378 0L114.378 0ZM34.1539 113.846C15.2981 113.846 0 129.144 0 148L0 261.846C0 280.702 15.2981 296 34.1539 296L193.539 296C212.394 296 227.692 280.702 227.692 261.846L227.692 148C227.692 129.144 212.394 113.846 193.539 113.846L34.1539 113.846ZM113.846 170.769C126.432 170.769 136.616 180.953 136.616 193.538C136.616 201.943 132.035 209.148 125.231 213.106L125.231 239.077C125.231 245.347 120.117 250.461 113.846 250.461C107.576 250.461 102.462 245.347 102.462 239.077L102.462 213.106C95.6577 209.148 91.0771 201.943 91.0771 193.538C91.0771 180.953 101.261 170.769 113.846 170.769L113.846 170.769Z" id="Shape" fill="#FFFFFF" fill-rule="evenodd" stroke="none" />
    </g>
  </g>
</svg>