<?xml version="1.0" encoding="UTF-8"?>
<svg width="824px" height="824px" viewBox="0 0 824 824" version="1.1" xmlns="http://www.w3.org/2000/svg" xmlns:xlink="http://www.w3.org/1999/xlink">
    <title>Combined Shape</title>
    <g id="Page-2" stroke="none" stroke-width="1" fill="none" fill-rule="evenodd">
        <path d="M247.644387,41.1968688 L249.36544,42.8902602 L411.99985,205.52485 L574.63456,42.8902602 L576.355613,41.1968688 C633.496405,-14.1205847 724.663359,-13.5561209 781.10974,42.8902602 C837.556121,99.3366413 838.120585,190.503595 782.803131,247.644387 L781.10974,249.36544 L618.47485,411.99985 L781.10974,574.63456 C838.126286,631.651106 838.126286,724.093193 781.10974,781.10974 C724.663359,837.556121 633.496405,838.120585 576.355613,782.803131 L574.63456,781.10974 L411.99985,618.47485 L249.36544,781.10974 C192.348894,838.126286 99.9068068,838.126286 42.8902602,781.10974 C-13.5561209,724.663359 -14.1205847,633.496405 41.1968688,576.355613 L42.8902602,574.63456 L205.52485,411.99985 L42.8902602,249.36544 L41.1968688,247.644387 C-14.1205847,190.503595 -13.5561209,99.3366413 42.8902602,42.8902602 C99.3366413,-13.5561209 190.503595,-14.1205847 247.644387,41.1968688 Z" id="Combined-Shape" fill="#EDF0F1"></path>
    </g>
</svg>